inDegrees=no
num_controls=7
num_derivatives=13
num_iterations=139
num_multipliers=7
num_parameters=0
num_slacks=7
num_states=26
objective=5.227294
objective_accelerations=0.485959
objective_balance=0.054310
objective_effort=0.244414
objective_height=4.356729
objective_ligament=0.085882
solver_duration=1540.021225
status=Solve_Succeeded
success=true
DataType=double
version=3
OpenSimVersion=4.4-2022-07-23-0e9fedc
endheader
time	/jointset/ground_pelvis/pelvis_tilt/value	/jointset/ground_pelvis/pelvis_tx/value	/jointset/ground_pelvis/pelvis_ty/value	/jointset/hip_l/hip_flexion_l/value	/jointset/hip_l/hip_adduction_l/value	/jointset/hip_l/hip_rotation_l/value	/jointset/back/lumbar_extension/value	/jointset/patellofemoral_l/patellar_flexion_l/value	/jointset/knee_l/knee_flexion_l/value	/jointset/knee_l/knee_adduction_l/value	/jointset/knee_l/knee_rotation_l/value	/jointset/ankle_l/ankle_angle_l/value	/jointset/subtalar_l/subtalar_angle_l/value	/jointset/ground_pelvis/pelvis_tilt/speed	/jointset/ground_pelvis/pelvis_tx/speed	/jointset/ground_pelvis/pelvis_ty/speed	/jointset/hip_l/hip_flexion_l/speed	/jointset/hip_l/hip_adduction_l/speed	/jointset/hip_l/hip_rotation_l/speed	/jointset/back/lumbar_extension/speed	/jointset/patellofemoral_l/patellar_flexion_l/speed	/jointset/knee_l/knee_flexion_l/speed	/jointset/knee_l/knee_adduction_l/speed	/jointset/knee_l/knee_rotation_l/speed	/jointset/ankle_l/ankle_angle_l/speed	/jointset/subtalar_l/subtalar_angle_l/speed	/forceset/tau_hip_flexion_l	/forceset/tau_hip_adduction_l	/forceset/tau_hip_rotation_l	/forceset/tau_knee_flexion_l	/forceset/tau_ankle_angle_l	/forceset/tau_subtalar_angle_l	/forceset/tau_lumbar_extension	lambda_cid13_p0	lambda_cid13_p1	lambda_cid13_p2	lambda_cid13_p3	lambda_cid13_p4	lambda_cid13_p5	lambda_cid14_p0	/jointset/ground_pelvis/pelvis_tilt/accel	/jointset/ground_pelvis/pelvis_tx/accel	/jointset/ground_pelvis/pelvis_ty/accel	/jointset/hip_l/hip_flexion_l/accel	/jointset/hip_l/hip_adduction_l/accel	/jointset/hip_l/hip_rotation_l/accel	/jointset/back/lumbar_extension/accel	/jointset/patellofemoral_l/patellar_flexion_l/accel	/jointset/knee_l/knee_flexion_l/accel	/jointset/knee_l/knee_adduction_l/accel	/jointset/knee_l/knee_rotation_l/accel	/jointset/ankle_l/ankle_angle_l/accel	/jointset/subtalar_l/subtalar_angle_l/accel	gamma_cid13_p0	gamma_cid13_p1	gamma_cid13_p2	gamma_cid13_p3	gamma_cid13_p4	gamma_cid13_p5	gamma_cid14_p0
1	-0.5907645194834239	-0.09493618121128514	0.6555306867571632	1.635925659051349	-0.4715256996641767	-0.09421689957678687	-0.2617967485561266	1.064703045706705	1.064703045706547	-0.1592052832507512	-0.1745306872363422	0.09624935730931512	-0.08041181038170093	-0.01649879411657521	0.0108292954942195	0.002877246718931766	-0.001733926503395735	-0.001320458434761107	0.001117260867629235	-1.292723897767169e-05	-0.0004392497009512913	-0.0004392497009515044	-0.00322171426781695	-2.893800204910085e-06	0.01770149139597861	0.007360821213766091	-0.3414986255899936	0.03992297864423077	-0.005469077572937056	-0.2117441065877131	0.04482789047280018	0.05977290438627643	0.2878453468904985	-24.44579795347821	-23.83647913074033	5.928526434178963	1.049771363610362	-620.2321177730486	-52.06639778898838	-13.82547291941061	1.979283809336104	0.4741419082590048	1.431902103174896	-5.997362283834066	0.1747209036094647	-1.998233894659569	-0.02359007464702014	-3.997314115471022	-3.997314115471021	-0.07465832780626479	-0.01520035193787329	-0.4519298779374605	-0.0004771151126500956	2.552814710938553e-09	9.686202361497811e-09	-6.522175332587536e-09	2.202784313281751e-09	-1.677175978437384e-09	1.264221258637887e-08	1.523193060089598e-09
1.01	-0.5908316292120422	-0.09480425943611206	0.655630892933705	1.635610013347856	-0.4715294186309608	-0.09430582746485759	-0.2617969003112355	1.06449897879248	1.064498978792403	-0.1592396234771413	-0.1745307035145133	0.09640390371195237	-0.08033730659020077	0.003075698973956044	0.01555641152651636	0.0171602155075971	-0.06138712081972793	0.0005780980180203251	-0.01890010962406505	-1.755549373012586e-05	-0.04036995228695659	-0.04036995228695718	-0.003646406016341692	-6.444560363856219e-07	0.01320572144153874	0.007540475937912701	-0.3413688509485641	0.03999629054316855	-0.005462087730670537	-0.2116198316321081	0.04467525246923246	0.05976330022613062	0.2877492087884966	-24.48183600247448	-23.82924477757748	5.931081674620346	1.005092088908969	-620.076046270229	-52.07461110753905	-13.83461696920857	1.94635909541275	0.4721994310569462	1.425926786317689	-5.948084695741654	0.1976388891740035	-2.003082052994658	0.01108104314958277	-3.990320361668624	-3.990320361668636	-0.02638732724118632	0.007897932475915236	-0.4487106842249172	0.02726650239177957	-2.552695737339193e-09	1.387366051417456e-10	9.330309112374575e-09	9.248086685192961e-10	-7.53157246686714e-09	2.508302981770679e-08	-4.144520113484917e-09
1.02	-0.5907030286024595	-0.0946250259045479	0.6558738153020529	1.634698078363156	-0.4715141088585996	-0.09459484774311673	-0.261797102300078	1.063895730446122	1.063895730446085	-0.1592782131669032	-0.1745307052282089	0.09651343038904675	-0.08026099030421568	0.02264327352449721	0.02029164677244028	0.03142048508014935	-0.1209917827444449	0.002485289393231703	-0.03890121717855232	-2.297398695126842e-05	-0.08027553613309428	-0.08027553613309525	-0.004071606919476	1.908339762885947e-08	0.008697546285992829	0.007723320110599403	-0.3412390763071129	0.04006960244222165	-0.005455097889221816	-0.2114955566764536	0.04452261446570575	0.05975369606614723	0.2876530706864845	-24.52379366428604	-23.82149380662637	5.934148276853274	0.9654745218729094	-620.0141725918945	-52.08036274433473	-13.86109755264573	1.977900101338064	0.4757657509844301	1.427362259952287	-5.987655805511037	0.1764478880954464	-1.994981307218165	-0.02374812234048548	-3.992290367497504	-3.992290367497504	-0.07476015872819128	-0.01551751288478467	-0.4544109181586485	0.0001607745953695527	-7.508637451209648e-09	-9.214204020161731e-09	2.472608103793181e-08	-4.004595948262232e-10	-1.309020967397799e-08	3.70777784975863e-08	-9.675512703927912e-09
1.03	-0.5903788192322855	-0.09439839148860303	0.6562591616988623	1.633190503157998	-0.4714796562705742	-0.09508371723336025	-0.2617973469520945	1.062893635656293	1.062893635656366	-0.1593210786905203	-0.1745307077895207	0.09657778317089165	-0.08018281482780019	0.04219334857333395	0.02503729394101763	0.04563847069931561	-0.1804976875831959	0.004410443977689659	-0.05886315909898807	-2.363739305211396e-05	-0.1201308795455266	-0.1201308795455276	-0.004500851839150973	-2.38635384042038e-07	0.004168151831879975	0.007915043731309211	-0.3407652225060069	0.04015441424059532	-0.005453497776339285	-0.2113140270419522	0.04441994978112267	0.05974656282928743	0.2873175626421519	-24.53207490449096	-23.82429145983292	5.942984787198362	0.8972066895169964	-619.6519855526218	-52.12849500378329	-13.90494289875027	1.942771600790487	0.4742724752441531	1.417464412715257	-5.928224377282277	0.2013314013372973	-1.995382541579426	0.01212240476546123	-3.980271910880255	-3.980271910880211	-0.02691507494743039	0.007774407898399195	-0.4529330344191906	0.0291668035569272	-1.246305295350452e-08	-1.856515969514834e-08	4.011719263165838e-08	-1.726210435912386e-09	-1.864582892923864e-08	4.906797545755308e-08	-1.520511018637977e-08
